<?xml version="1.0" encoding="UTF-8"?>
<svg id="Calque_2" data-name="Calque 2" xmlns="http://www.w3.org/2000/svg" viewBox="0 0 390.81 379.17">
  <defs>
    <style>
      .cls-1 {
        fill: #edf4fa;
        stroke-width: 0px;
      }
    </style>
  </defs>
  <g id="Calque_1-2" data-name="Calque 1">
    <g>
      <polygon class="cls-1" points="390.81 369.69 307.94 333.94 307.94 216.94 390.81 182.81 390.81 369.69"/>
      <path class="cls-1" d="m215.31,0c-47.57,0-86.13,38.56-86.13,86.13s38.56,86.13,86.13,86.13,86.13-38.56,86.13-86.13S262.88,0,215.31,0Zm0,136.35c-27.74,0-50.22-22.49-50.22-50.22s22.49-50.22,50.22-50.22,50.22,22.49,50.22,50.22-22.49,50.22-50.22,50.22Z"/>
      <path class="cls-1" d="m254.16,86.12h-8.08c0-16.96-13.8-30.76-30.77-30.76v-8.08c21.42,0,38.85,17.43,38.85,38.85Z"/>
      <path class="cls-1" d="m65,43.06C29.1,43.06,0,72.16,0,108.06s29.1,65,65,65,65-29.1,65-65-29.1-65-65-65Zm0,94.25c-16.15,0-29.25-13.1-29.25-29.25s13.1-29.25,29.25-29.25,29.25,13.1,29.25,29.25-13.1,29.25-29.25,29.25Z"/>
      <g>
        <path class="cls-1" d="m239.69,223.42c-6.73,0-12.21,5.48-12.21,12.21s5.48,12.21,12.21,12.21,12.21-5.48,12.21-12.21-5.48-12.21-12.21-12.21Z"/>
        <rect class="cls-1" x="47.03" y="274.43" width="120.89" height="62.27"/>
        <path class="cls-1" d="m3.25,172.79v206.38h295.75v-206.38H3.25Zm172.75,171.99H38.95v-78.43h137.05v78.43Zm63.69-88.86c-11.19,0-20.29-9.1-20.29-20.29s9.1-20.29,20.29-20.29,20.29,9.1,20.29,20.29-9.1,20.29-20.29,20.29Z"/>
      </g>
    </g>
  </g>
</svg>