<?xml version="1.0" encoding="UTF-8"?>
<svg id="Calque_2" data-name="Calque 2" xmlns="http://www.w3.org/2000/svg" viewBox="0 0 96.72 93.83">
  <defs>
    <style>
      .cls-1 {
        fill: #fff;
        stroke-width: 0px;
      }
    </style>
  </defs>
  <g id="Calque_1-2" data-name="Calque 1">
    <g>
      <polygon class="cls-1" points="96.72 91.49 76.21 82.64 76.21 53.69 96.72 45.24 96.72 91.49"/>
      <path class="cls-1" d="m53.28,0c-11.77,0-21.31,9.54-21.31,21.31s9.54,21.31,21.31,21.31,21.31-9.54,21.31-21.31S65.06,0,53.28,0Zm0,33.74c-6.86,0-12.43-5.56-12.43-12.43s5.56-12.43,12.43-12.43,12.43,5.56,12.43,12.43-5.56,12.43-12.43,12.43Z"/>
      <path class="cls-1" d="m62.9,21.31h-2c0-4.2-3.42-7.61-7.61-7.61v-2c5.3,0,9.61,4.31,9.61,9.61Z"/>
      <path class="cls-1" d="m16.09,10.66C7.2,10.66,0,17.86,0,26.74s7.2,16.09,16.09,16.09,16.09-7.2,16.09-16.09-7.2-16.09-16.09-16.09Zm0,23.32c-4,0-7.24-3.24-7.24-7.24s3.24-7.24,7.24-7.24,7.24,3.24,7.24,7.24-3.24,7.24-7.24,7.24Z"/>
      <g>
        <path class="cls-1" d="m59.32,55.29c-1.67,0-3.02,1.36-3.02,3.02s1.36,3.02,3.02,3.02,3.02-1.36,3.02-3.02-1.36-3.02-3.02-3.02Z"/>
        <rect class="cls-1" x="11.64" y="67.91" width="29.92" height="15.41"/>
        <path class="cls-1" d="m.8,42.76v51.07h73.19v-51.07H.8Zm42.75,42.56H9.64v-19.41h33.92v19.41Zm15.76-21.99c-2.77,0-5.02-2.25-5.02-5.02s2.25-5.02,5.02-5.02,5.02,2.25,5.02,5.02-2.25,5.02-5.02,5.02Z"/>
      </g>
    </g>
  </g>
</svg>