<?xml version="1.0" encoding="UTF-8"?>
<svg id="Calque_2" data-name="Calque 2" xmlns="http://www.w3.org/2000/svg" viewBox="0 0 120.56 88.91">
  <defs>
    <style>
      .cls-1 {
        fill: #fff;
        stroke-width: 0px;
      }
    </style>
  </defs>
  <g id="Calque_1-2" data-name="Calque 1">
    <g>
      <path class="cls-1" d="m60.06,78.74c-3.72,0-7.18-1.84-9.26-4.92l1.66-1.12c1.71,2.53,4.55,4.04,7.6,4.04s5.89-1.51,7.6-4.04l1.66,1.12c-2.08,3.08-5.54,4.92-9.26,4.92Z"/>
      <path class="cls-1" d="m60.06,88.91c-6.57,0-12.54-3.36-15.96-8.98l1.71-1.04c3.05,5.02,8.38,8.02,14.25,8.02s10.98-2.89,14.07-7.72l1.69,1.08c-3.45,5.41-9.34,8.64-15.75,8.64Z"/>
      <polygon class="cls-1" points="120.56 5.84 120.56 3.84 102.17 3.84 102.17 0 95.88 0 95.88 3.84 77 3.84 77 5.84 95.88 5.84 95.88 22.27 89.13 22.27 89.13 29.77 104.14 29.77 108.98 22.27 102.17 22.27 102.17 5.84 120.56 5.84"/>
      <polygon class="cls-1" points="43.56 5.84 43.56 3.84 24.69 3.84 24.69 0 18.39 0 18.39 3.84 0 3.84 0 5.84 18.39 5.84 18.39 22.27 11.58 22.27 16.43 29.77 31.43 29.77 31.43 22.27 24.69 22.27 24.69 5.84 43.56 5.84"/>
      <path class="cls-1" d="m60.14,58c-4.4,0-8.1-2.96-9.23-7h-9.65l4.84,13.41h28.08l4.84-13.41h-9.65c-1.13,4.04-4.83,7-9.23,7Z"/>
      <path class="cls-1" d="m102.94,76.61c-.44-14.67-5.78-26.98-14.73-34.17v-25.25h-55.82v26.08c-8.36,7.29-13.33,19.22-13.76,33.38-.07,2.25.06,4.5.39,6.7l4.95-.73c-.28-1.91-.4-3.87-.34-5.86.18-5.82,1.59-19.15,10.31-28.11h16.62c0-.08-.01-.16-.01-.24,0-5.3,4.3-9.59,9.59-9.59s9.59,4.3,9.59,9.59c0,.08-.01.16-.01.24h17.91c8.72,8.96,10.13,22.3,10.31,28.15.06,1.95-.05,3.91-.34,5.82l4.95.73c.33-2.2.46-4.46.39-6.74Z"/>
      <path class="cls-1" d="m67.54,48.4h-2c0-2.98-2.42-5.41-5.41-5.41v-2c4.08,0,7.41,3.32,7.41,7.41Z"/>
    </g>
  </g>
</svg>