<?xml version="1.0" encoding="UTF-8"?>
<svg id="Calque_2" data-name="Calque 2" xmlns="http://www.w3.org/2000/svg" viewBox="0 0 487.19 359.26">
  <defs>
    <style>
      .cls-1 {
        fill: #edf4fa;
        stroke-width: 0px;
      }
    </style>
  </defs>
  <g id="Calque_1-2" data-name="Calque 1">
    <g>
      <path class="cls-1" d="m242.69,318.18c-15.02,0-29-7.43-37.41-19.89l6.7-4.52c6.9,10.22,18.39,16.33,30.71,16.33s23.81-6.1,30.71-16.33l6.7,4.52c-8.41,12.45-22.39,19.89-37.41,19.89Z"/>
      <path class="cls-1" d="m242.69,359.26c-26.56,0-50.67-13.56-64.49-36.28l6.91-4.2c12.34,20.29,33.87,32.4,57.59,32.4s44.38-11.66,56.84-31.19l6.81,4.35c-13.95,21.87-37.74,34.93-63.65,34.93Z"/>
      <polygon class="cls-1" points="487.19 23.6 487.19 15.52 412.86 15.52 412.86 0 387.43 0 387.43 15.52 311.15 15.52 311.15 23.6 387.43 23.6 387.43 89.98 360.17 89.98 360.17 120.29 420.81 120.29 440.37 89.98 412.86 89.98 412.86 23.6 487.19 23.6"/>
      <polygon class="cls-1" points="176.04 23.6 176.04 15.52 99.75 15.52 99.75 0 74.33 0 74.33 15.52 0 15.52 0 23.6 74.33 23.6 74.33 89.98 46.81 89.98 66.37 120.29 127.01 120.29 127.01 89.98 99.75 89.98 99.75 23.6 176.04 23.6"/>
      <path class="cls-1" d="m243.01,234.37c-17.77,0-32.72-11.97-37.3-28.29h-38.99l19.56,54.19h113.45l19.56-54.19h-38.99c-4.58,16.31-19.52,28.29-37.3,28.29Z"/>
      <path class="cls-1" d="m415.97,309.56c-1.79-59.27-23.37-109.02-59.51-138.08v-102.04h-225.56v105.39c-33.76,29.45-53.88,77.66-55.6,134.89-.28,9.07.25,18.19,1.57,27.09l19.98-2.97c-1.14-7.71-1.6-15.62-1.36-23.66.71-23.52,6.42-77.39,41.65-113.6h67.15c0-.33-.05-.65-.05-.98,0-21.41,17.36-38.77,38.77-38.77s38.77,17.36,38.77,38.77c0,.33-.04.65-.05.98h72.39c35.23,36.21,40.94,90.1,41.65,113.76.24,7.88-.22,15.79-1.36,23.5l19.98,2.97c1.32-8.9,1.85-18.01,1.57-27.24Z"/>
      <path class="cls-1" d="m272.94,195.6h-8.08c0-12.04-9.8-21.84-21.84-21.84v-8.08c16.5,0,29.92,13.42,29.92,29.92Z"/>
    </g>
  </g>
</svg>