<svg id="Calque_1" data-name="Calque 1" xmlns="http://www.w3.org/2000/svg" viewBox="0 0 381.85 315.19"><defs><style>.cls-1{fill:#3f4851;}</style></defs><path class="cls-1" d="M30.08,224.21H351.77V29.37H30.08ZM118.54,49.46,64.28,121.82,57.81,117l54.27-72.36ZM83.1,44.66l6.53,4.75L60.69,89.21l-6.53-4.76Z"/><path class="cls-1" d="M0,265.26H381.85V231.2H0ZM175.28,244h31.3v8.08h-31.3Z"/><polygon class="cls-1" points="22 21.28 359.86 21.28 359.86 224.21 381.85 224.21 381.85 0 0 0 0 224.21 22 224.21 22 21.28"/><rect class="cls-1" y="224.21" height="6.98"/><rect class="cls-1" x="381.85" y="224.21" height="6.98"/><rect class="cls-1" x="146.33" y="272.37" width="89.2" height="28.17"/><rect class="cls-1" x="117.37" y="307.11" width="147.11" height="8.08"/></svg>