<svg id="Calque_1" data-name="Calque 1" xmlns="http://www.w3.org/2000/svg" viewBox="0 0 487.19 359.26"><defs><style>.cls-1{fill:#3f4851;}</style></defs><path class="cls-1" d="M242.69,318.18a45.07,45.07,0,0,1-37.41-19.89l6.7-4.52a37,37,0,0,0,61.41,0l6.7,4.52A45.06,45.06,0,0,1,242.69,318.18Z"/><path class="cls-1" d="M242.69,359.26A75,75,0,0,1,178.19,323l6.91-4.2A67.37,67.37,0,0,0,299.52,320l6.81,4.35A75.15,75.15,0,0,1,242.69,359.26Z"/><polygon class="cls-1" points="487.19 23.6 487.19 15.52 412.86 15.52 412.86 0 387.43 0 387.43 15.52 311.15 15.52 311.15 23.6 387.43 23.6 387.43 89.98 360.17 89.98 360.17 120.29 420.81 120.29 440.37 89.98 412.86 89.98 412.86 23.6 487.19 23.6"/><polygon class="cls-1" points="176.04 23.6 176.04 15.52 99.75 15.52 99.75 0 74.33 0 74.33 15.52 0 15.52 0 23.6 74.33 23.6 74.33 89.98 46.81 89.98 66.37 120.29 127.01 120.29 127.01 89.98 99.75 89.98 99.75 23.6 176.04 23.6"/><path class="cls-1" d="M243,234.37a38.74,38.74,0,0,1-37.29-28.29h-39l19.56,54.2H299.74l19.56-54.2h-39A38.75,38.75,0,0,1,243,234.37Z"/><path class="cls-1" d="M416,309.56c-1.79-59.27-23.37-109-59.51-138.08v-102H130.9V174.83C97.14,204.27,77,252.49,75.3,309.72a152.85,152.85,0,0,0,1.57,27.08l20-3a133.46,133.46,0,0,1-1.35-23.66c.71-23.52,6.42-77.39,41.65-113.6h67.14c0-.33,0-.65,0-1a38.77,38.77,0,0,1,77.54,0c0,.33,0,.65,0,1h72.39c35.23,36.21,40.94,90.1,41.65,113.75a132.59,132.59,0,0,1-1.36,23.51l20,3A152.83,152.83,0,0,0,416,309.56Z"/><path class="cls-1" d="M272.94,195.6h-8.09A21.86,21.86,0,0,0,243,173.76v-8.09A30,30,0,0,1,272.94,195.6Z"/></svg>