<svg id="Calque_1" data-name="Calque 1" xmlns="http://www.w3.org/2000/svg" viewBox="0 0 316.22 316.22"><defs><style>.cls-1{fill:#3f4851;}</style></defs><path class="cls-1" d="M170.78.51Q164.51,0,158.11,0a157.78,157.78,0,0,0-122,57.5l49.68,87.13Z"/><path class="cls-1" d="M290.5,244.56A158.29,158.29,0,0,0,304.17,97.49H203.4Z"/><path class="cls-1" d="M29.75,65.79A158.27,158.27,0,0,0,10,213.5H113Z"/><path class="cls-1" d="M299.54,87.37A158.26,158.26,0,0,0,181.79,1.77l-50.47,85.6Z"/><path class="cls-1" d="M14.18,223.63a158.31,158.31,0,0,0,118.7,90.58l52.62-90.58Z"/><path class="cls-1" d="M143.79,315.57c4.72.42,9.49.65,14.32.65a157.87,157.87,0,0,0,126-62.59L231.44,164.7Z"/></svg>