<?xml version="1.0" encoding="UTF-8"?>
<svg id="Calque_2" data-name="Calque 2" xmlns="http://www.w3.org/2000/svg" viewBox="0 0 318.88 335.17">
  <defs>
    <style>
      .cls-1 {
        fill: #edf4fa;
        stroke-width: 0px;
      }
    </style>
  </defs>
  <g id="Calque_1-2" data-name="Calque 1">
    <g>
      <path class="cls-1" d="m231.28,220.91h-8.08c0-13.75-11.18-24.93-24.93-24.93v-8.08c18.2,0,33.01,14.81,33.01,33.01Z"/>
      <g>
        <rect class="cls-1" x="194.22" width="8.08" height="44.5"/>
        <rect class="cls-1" x="223.02" y="33.76" width="36.58" height="8.08" transform="translate(43.7 181.37) rotate(-44.9)"/>
        <rect class="cls-1" x="153.26" y="19.51" width="8.08" height="36.58" transform="translate(19.19 122.05) rotate(-44.9)"/>
      </g>
      <path class="cls-1" d="m268.8,113.02l-24.71-35.94h-87.83l-23.14,35.94h-46.87v-18.95h-36.91v18.95H0v222.15h318.88V113.02h-50.09Zm-182.55,61.02h-36.91v-8.08h36.91v8.08Zm63.68-14.18l5.02,6.33c-4.22,3.35-8.06,7.19-11.4,11.4l-6.33-5.02c3.73-4.7,8.01-8.99,12.72-12.71Zm48.33,14.52c25.66,0,46.53,20.87,46.53,46.53s-20.87,46.53-46.53,46.53-46.53-20.87-46.53-46.53,20.87-46.53,46.53-46.53Zm0,124.4c-42.94,0-77.87-34.93-77.87-77.87,0-12.85,3.2-25.59,9.25-36.85l7.12,3.83c-5.42,10.08-8.29,21.5-8.29,33.02,0,38.48,31.3,69.79,69.79,69.79s69.79-31.3,69.79-69.79-31.3-69.78-69.79-69.78c-10.88,0-21.29,2.43-30.95,7.22l-3.59-7.24c10.78-5.35,22.41-8.06,34.54-8.06,42.94,0,77.87,34.93,77.87,77.87s-34.93,77.87-77.87,77.87Z"/>
    </g>
  </g>
</svg>