<?xml version="1.0" encoding="UTF-8"?>
<svg id="Calque_2" data-name="Calque 2" xmlns="http://www.w3.org/2000/svg" viewBox="0 0 78.91 82.95">
  <defs>
    <style>
      .cls-1 {
        fill: #fff;
        stroke-width: 0px;
      }
    </style>
  </defs>
  <g id="Calque_1-2" data-name="Calque 1">
    <g>
      <path class="cls-1" d="m57.23,54.67h-2c0-3.4-2.77-6.17-6.17-6.17v-2c4.5,0,8.17,3.67,8.17,8.17Z"/>
      <g>
        <rect class="cls-1" x="48.06" width="2" height="11.01"/>
        <rect class="cls-1" x="55.19" y="8.35" width="9.05" height="2" transform="translate(10.82 44.88) rotate(-44.9)"/>
        <rect class="cls-1" x="37.93" y="4.83" width="2" height="9.05" transform="translate(4.75 30.2) rotate(-44.9)"/>
      </g>
      <path class="cls-1" d="m66.52,27.97l-6.12-8.89h-21.73l-5.73,8.89h-11.6v-4.69h-9.13v4.69H0v54.98h78.91V27.97h-12.39Zm-45.18,15.1h-9.13v-2h9.13v2Zm15.76-3.51l1.24,1.57c-1.04.83-1.99,1.78-2.82,2.82l-1.57-1.24c.92-1.16,1.98-2.22,3.15-3.15Zm11.96,3.59c6.35,0,11.51,5.17,11.51,11.51s-5.17,11.51-11.51,11.51-11.52-5.17-11.52-11.51,5.17-11.51,11.52-11.51Zm0,30.79c-10.63,0-19.27-8.64-19.27-19.27,0-3.18.79-6.33,2.29-9.12l1.76.95c-1.34,2.49-2.05,5.32-2.05,8.17,0,9.52,7.75,17.27,17.27,17.27s17.27-7.75,17.27-17.27-7.75-17.27-17.27-17.27c-2.69,0-5.27.6-7.66,1.79l-.89-1.79c2.67-1.32,5.54-2,8.55-2,10.63,0,19.27,8.64,19.27,19.27s-8.64,19.27-19.27,19.27Z"/>
    </g>
  </g>
</svg>