<?xml version="1.0" encoding="UTF-8"?>
<svg id="Calque_2" data-name="Calque 2" xmlns="http://www.w3.org/2000/svg" viewBox="0 0 316.22 316.22">
  <defs>
    <style>
      .cls-1 {
        fill: #edf4fa;
        stroke-width: 0px;
      }
    </style>
  </defs>
  <g id="Calque_1-2" data-name="Calque 1">
    <g>
      <path class="cls-1" d="m170.78.51c-4.18-.33-8.41-.51-12.67-.51-49.1,0-92.97,22.38-121.97,57.5l49.68,87.13L170.78.51Z"/>
      <path class="cls-1" d="m290.5,244.56c16.26-24.85,25.72-54.54,25.72-86.45,0-21.48-4.29-41.95-12.05-60.62h-100.77l87.1,147.07Z"/>
      <path class="cls-1" d="m29.75,65.79C11.03,91.77,0,123.65,0,158.11c0,19.49,3.54,38.15,9.99,55.39h103.05L29.75,65.79Z"/>
      <path class="cls-1" d="m299.54,87.37C276.95,42.3,233.47,9.53,181.79,1.77l-50.47,85.6h168.22Z"/>
      <path class="cls-1" d="m14.18,223.63c21.56,47.29,65.73,82.09,118.7,90.58l52.63-90.58H14.18Z"/>
      <path class="cls-1" d="m143.79,315.57c4.72.42,9.49.65,14.32.65,51.43,0,97.12-24.56,126-62.59l-52.67-88.93-87.65,150.87Z"/>
    </g>
  </g>
</svg>