<svg id="Calque_1" data-name="Calque 1" xmlns="http://www.w3.org/2000/svg" viewBox="0 0 390.81 379.17"><defs><style>.cls-1{fill:#3f4851;}</style></defs><polygon class="cls-1" points="390.81 369.69 307.94 333.94 307.94 216.94 390.81 182.81 390.81 369.69"/><path class="cls-1" d="M215.31,0a86.13,86.13,0,1,0,86.13,86.13A86.13,86.13,0,0,0,215.31,0Zm0,136.35a50.23,50.23,0,1,1,50.23-50.22A50.23,50.23,0,0,1,215.31,136.35Z"/><path class="cls-1" d="M254.16,86.12h-8.08a30.8,30.8,0,0,0-30.77-30.76V47.28A38.88,38.88,0,0,1,254.16,86.12Z"/><path class="cls-1" d="M65,43.06a65,65,0,1,0,65,65A65,65,0,0,0,65,43.06Zm0,94.25a29.25,29.25,0,1,1,29.25-29.25A29.25,29.25,0,0,1,65,137.31Z"/><path class="cls-1" d="M239.69,223.42a12.21,12.21,0,1,0,12.21,12.2A12.23,12.23,0,0,0,239.69,223.42Z"/><rect class="cls-1" x="47.03" y="274.43" width="120.89" height="62.27"/><path class="cls-1" d="M3.25,172.79V379.17H299V172.79ZM176,344.78H39V266.35H176Zm63.69-88.86A20.29,20.29,0,1,1,260,235.62,20.32,20.32,0,0,1,239.69,255.92Z"/></svg>