<svg id="Calque_1" data-name="Calque 1" xmlns="http://www.w3.org/2000/svg" viewBox="0 0 318.88 335.17"><defs><style>.cls-1{fill:#3f4851;}</style></defs><path class="cls-1" d="M231.28,220.91H223.2A25,25,0,0,0,198.27,196V187.9A33,33,0,0,1,231.28,220.91Z"/><rect class="cls-1" x="194.22" width="8.08" height="44.5"/><rect class="cls-1" x="223.02" y="33.76" width="36.58" height="8.08" transform="translate(43.7 181.37) rotate(-44.9)"/><rect class="cls-1" x="153.26" y="19.51" width="8.08" height="36.58" transform="translate(19.19 122.05) rotate(-44.9)"/><path class="cls-1" d="M268.8,113,244.09,77.08H156.26L133.12,113H86.25v-19H49.34v19H0V335.17H318.88V113ZM86.25,174H49.34V166H86.25Zm63.68-14.18,5,6.33a70.31,70.31,0,0,0-11.4,11.41l-6.34-5A78.49,78.49,0,0,1,149.93,159.86Zm48.34,14.53a46.53,46.53,0,1,1-46.54,46.52A46.57,46.57,0,0,1,198.27,174.39Zm0,124.39a77.89,77.89,0,0,1-68.62-114.71l7.12,3.83a69.79,69.79,0,1,0,61.5-36.77,69.05,69.05,0,0,0-31,7.22l-3.59-7.24a77,77,0,0,1,34.54-8.06,77.87,77.87,0,0,1,0,155.73Z"/></svg>